<svg width="69" height="78" viewBox="0 0 69 78" fill="none" xmlns="http://www.w3.org/2000/svg">
<mask id="mask0_20_277" style="mask-type:luminance" maskUnits="userSpaceOnUse" x="0" y="0" width="69" height="78">
<path d="M15.589 0L68.0701 12.7173L52.4811 77.049L0 64.3317L15.589 0Z" fill="white"/>
</mask>
<g mask="url(#mask0_20_277)">
<path fill-rule="evenodd" clip-rule="evenodd" d="M36.4978 41.9374C37.404 39.8736 37.9365 37.9112 31.0056 36.8858C23.4032 35.7628 15.0645 36.6297 10.8806 31.285C6.04966 25.1144 12.3133 16.0691 28.2617 22.3872C60.1183 35.0077 48.5582 84.3726 49.3197 89.9682L49.0113 90.0725L48.8487 91.3504C48.3705 91.1735 47.8713 91.0625 47.3951 90.8851C47.3448 90.8659 47.2893 90.6325 47.2756 90.5861C46.0806 86.6598 54.945 49.9793 38.2553 31.8243C31.2229 24.176 20.7961 21.6574 15.8562 22.7548C9.30048 24.2138 10.3124 31.3843 18.6081 33.1465C26.1487 34.7477 40.0271 33.2958 39.3269 40.5316C39.2421 41.4102 38.7734 42.985 38.1272 43.6045C35.842 45.7993 25.7036 48.2405 18.384 43.6763C17.7775 43.2983 14.2687 40.9747 11.2155 39.9908C10.0235 39.6059 9.22285 39.641 9.09536 39.7791C7.53121 41.4625 8.86328 42.1444 11.1947 44.5177C15.9874 49.3977 13.9215 53.197 11.5936 58.189C7.46576 67.0386 6.43691 66.8473 5.9803 75.4224C5.79525 78.9102 2.77461 79.3975 5.11126 82.4552C5.15315 82.5093 5.24161 82.5488 5.23881 82.6181C5.20546 83.4822 5.07308 83.4671 5.0409 84.3305C4.47467 84.2113 3.88247 84.2488 3.31718 84.1299C3.31529 84.1294 2.93465 83.6571 2.62542 83.1501C0.317332 79.3801 3.40144 77.434 3.54321 75.3919C3.9247 69.8923 3.90342 68.2548 6.80091 62.4807C11.348 53.4155 11.9988 51.7989 11.6032 49.6756C10.8412 45.5762 4.09876 43.5873 6.51892 39.2918C7.57127 37.4214 9.41817 35.1614 19.4743 41.579C25.9955 45.7398 34.7982 43.379 36.4978 41.9374Z" fill="#390000"/>
<path fill-rule="evenodd" clip-rule="evenodd" d="M54.848 22.7085C53.7158 24.6446 52.624 26.8675 52.2379 28.8323C51.6586 31.7926 51.4353 31.7645 49.3261 35.3341C46.2859 40.4796 48.2638 40.9189 48.2197 46.3142C48.1307 56.9878 39.1035 60.2053 33.6056 62.4457C33.0108 62.6877 33.0143 62.7025 32.9892 62.6985C32.2332 62.5783 32.3499 62.2455 31.5941 62.1243C31.8879 61.7165 31.8734 61.1368 32.1691 60.7294C32.3675 60.4554 39.091 58.548 42.716 54.7865C47.8192 49.4898 45.4109 42.753 45.3497 40.5208C45.2165 35.6925 49.2009 32.3422 49.7846 29.298C50.2788 26.7303 50.7384 24.8213 53.5517 20.29C53.8592 18.4351 56.0255 16.5246 56.3263 16.3894C56.3533 16.377 56.3801 16.3654 56.4074 16.3561C56.4902 16.2291 56.5755 16.1037 56.6676 15.984C56.7853 15.8325 59.5497 15.6142 59.5824 18.0836C59.6122 20.3713 56.9235 23.5915 54.848 22.7085Z" fill="#390000"/>
<path fill-rule="evenodd" clip-rule="evenodd" d="M29.3549 43.4254L28.9837 44.5197C28.6061 44.1712 28.1747 43.8836 27.797 43.535C27.717 43.4606 28.1733 38.3172 29.4286 35.6338C29.4709 35.542 29.4661 35.4008 29.5594 35.3584C30.0881 35.1245 30.6857 35.0732 31.2145 34.8393C31.3397 35.3997 31.6071 35.9226 31.733 36.4842C31.753 36.5711 30.5821 38.1547 29.9295 43.4276L29.3549 43.4254Z" fill="#390000"/>
<path fill-rule="evenodd" clip-rule="evenodd" d="M47.4529 14.0811C47.3532 14.6491 47.5973 15.2433 47.4977 15.8113C47.4961 15.8219 46.599 16.7297 45.8432 17.3847C42.198 20.5442 39.684 21.2603 37.2856 26.5762C37.2392 26.677 37.2464 26.8248 37.1511 26.8797C36.7132 27.1267 36.1896 27.1948 35.7524 27.4429C35.6309 26.9534 35.3075 26.53 35.1877 26.0419C35.1595 25.927 35.2766 25.8234 35.3237 25.7158C38.1735 19.0529 41.6333 18.392 45.3436 14.5262C45.4719 14.3932 45.5445 14.1637 45.7246 14.1264C46.2876 14.0068 46.8888 14.2005 47.4529 14.0811Z" fill="#390000"/>
<path fill-rule="evenodd" clip-rule="evenodd" d="M45.9851 12.7344C45.9995 12.6458 46.0142 12.5564 46.0308 12.4674C46.0331 12.4579 46.3657 12.2285 46.6528 12.121C48.113 11.5807 50.1919 12.3875 50.1853 13.7232C50.1844 14.049 49.6326 16.1897 48.1248 16.6255C45.4295 17.4047 44.3163 13.6362 45.9851 12.7344Z" fill="#390000"/>
<path fill-rule="evenodd" clip-rule="evenodd" d="M16.9422 27.0034L16.9866 28.8385C16.8958 28.8215 16.2787 28.7099 15.9293 28.3932C15.1186 27.6567 15.7343 27.5058 16.1657 26.3901L16.7537 27.3108C16.8617 27.1789 16.9169 27.0873 16.9422 27.0034ZM16.928 26.4428C16.9286 26.428 16.9285 26.4119 16.9277 26.3947L16.928 26.4428ZM16.9422 27.0034L16.928 26.4428C16.9379 26.7283 16.9876 26.8533 16.9422 27.0034Z" fill="#390000"/>
<path fill-rule="evenodd" clip-rule="evenodd" d="M32.3748 32.0117L32.3111 32.3653C32.1143 32.4346 30.9212 33.0657 30.3394 32.1646C30.0354 31.6938 30.2118 31.2465 30.2417 31.1727C30.4061 30.7585 30.5641 30.6677 30.8376 30.678C30.8216 30.6451 30.8034 30.6087 30.7864 30.5716L30.9155 30.3568L32.618 30.6653L32.4603 31.5393L32.6051 31.8124L32.3748 32.0117Z" fill="#390000"/>
</g>
</svg>
