<svg width="95" height="81" viewBox="0 0 95 81" fill="none" xmlns="http://www.w3.org/2000/svg">
<path d="M42.052 26.3435C42.688 25.9781 43.3576 25.6866 44.0087 25.3527C44.6827 25.0057 45.384 24.7126 46.0944 24.4469C47.5466 23.904 49.0408 23.4976 50.5283 23.0645C53.5888 22.173 56.6714 21.2479 59.3249 19.4195C60.4625 18.6353 61.4828 17.6369 62.3694 16.5798C62.9323 15.9079 63.473 15.1434 63.749 14.3041C63.9828 13.5951 64.0534 12.8423 63.7664 12.1344C63.4856 11.4442 62.9397 10.9775 62.3177 10.6032C61.7077 10.2359 60.988 10.0377 60.2985 9.88599C59.5102 9.71222 58.7021 9.63211 57.8968 9.58893C55.9935 9.48725 54.0836 9.58596 52.1908 9.79926C50.5276 9.987 48.8709 10.264 47.2513 10.6908C46.1417 10.9831 45.049 11.4079 43.9929 11.8516C42.9284 12.2993 41.8987 12.8188 40.8947 13.3879C37.4023 15.3667 34.5039 18.2059 32.4326 21.6384C30.4748 24.8843 29.3699 28.6082 28.8442 32.3451C28.2838 36.3319 28.3614 40.4057 28.7875 44.4015C29.2254 48.5097 30.0559 52.5688 31.0878 56.5666C31.5755 58.4553 32.1168 60.3304 32.6994 62.1917C33.0362 63.2682 33.4148 64.3265 33.7737 65.3953C34.3272 67.042 34.7414 68.731 35.2253 70.3982C35.4955 71.3298 35.7909 72.2546 36.1386 73.1606C36.8056 72.903 37.4719 72.6457 38.1389 72.3882C38.0271 72.0987 37.8355 71.8364 37.6701 71.5734C37.5525 71.3858 37.4471 71.1705 37.2595 71.0429C37.3475 71.1631 37.4352 71.2826 37.5232 71.4028C37.5107 71.3704 37.4981 71.3379 37.4856 71.3055C37.3182 70.8719 36.8166 70.6497 36.383 70.8172C35.9493 70.9846 35.7272 71.4862 35.8947 71.9199C35.9072 71.9523 35.9197 71.9847 35.9323 72.0172C35.9166 71.8691 35.9013 71.7216 35.8857 71.5735C35.8325 71.794 35.8991 72.0242 35.9381 72.2422C35.9925 72.5481 36.0268 72.8711 36.1386 73.1606C36.3492 73.7059 36.9797 73.9851 37.525 73.7745C38.0709 73.5637 38.3476 72.9342 38.1389 72.3882C37.5172 70.7671 37.071 69.0882 36.6089 67.4162C36.3775 66.5793 36.1398 65.7448 35.8737 64.9184C35.6577 64.2476 35.4013 63.591 35.1828 62.9211C34.5872 61.0949 34.0317 59.2554 33.522 57.4025C33.2581 56.4426 33.0076 55.4783 32.7709 54.5107C32.7424 54.3941 32.7142 54.2767 32.6855 54.1595C32.6323 53.9384 32.7498 54.4264 32.6967 54.2053C32.6825 54.1463 32.6692 54.0876 32.655 54.0285C32.5943 53.7731 32.5352 53.5178 32.4772 53.2619C32.3648 52.7684 32.2569 52.2738 32.1522 51.7779C31.7329 49.7861 31.383 47.779 31.1183 45.7606C30.8561 43.7597 30.6825 41.7469 30.6213 39.7301C30.6063 39.2326 30.5987 38.7358 30.5987 38.2383C30.5982 38.0012 30.6004 37.7637 30.6033 37.526C30.605 37.4078 30.6073 37.2894 30.6098 37.1715C30.6118 37.0783 30.6261 36.601 30.6141 36.9784C30.6454 36.0049 30.7093 35.0324 30.8084 34.0636C31.0006 32.1776 31.3356 30.3047 31.8437 28.4774C31.8738 28.3697 31.9048 28.2624 31.936 28.1557C31.9566 28.0847 32.0178 27.8811 31.9204 28.2062C31.9363 28.1527 31.9531 28.0997 31.969 28.0462C32.0393 27.8161 32.1135 27.5868 32.1902 27.3585C32.3362 26.9215 32.4953 26.4887 32.6642 26.0592C32.9997 25.207 33.3848 24.3736 33.8142 23.564C33.9171 23.3701 34.0238 23.1783 34.1315 22.9876C34.1863 22.8919 34.2416 22.7974 34.2969 22.7029C34.3243 22.6551 34.3528 22.6082 34.3811 22.5607C34.4762 22.4007 34.2316 22.8049 34.3803 22.5625C34.6201 22.1716 34.8738 21.789 35.1365 21.413C35.6673 20.6524 36.2502 19.9283 36.8742 19.2421C37.0262 19.0751 37.181 18.9114 37.3385 18.7495C37.4175 18.6681 37.4974 18.5871 37.5777 18.5073C37.6179 18.4667 37.6584 18.4266 37.6991 18.3873C37.9047 18.1845 37.5692 18.5113 37.7051 18.3806C38.0527 18.0478 38.4122 17.7276 38.7804 17.4184C39.5431 16.7776 40.3516 16.1922 41.1903 15.6554C41.6277 15.3753 42.075 15.1116 42.529 14.8595C42.2102 15.0364 42.5993 14.8224 42.6743 14.7826C42.787 14.7219 42.9012 14.6628 43.0155 14.6043C43.2661 14.4753 43.5194 14.3516 43.7738 14.2304C44.8007 13.7428 45.8576 13.3218 46.9329 12.9539C47.3945 12.7957 47.8581 12.6446 48.3316 12.5249C48.4107 12.5051 48.4898 12.4853 48.5692 12.4661C48.1666 12.5635 48.4965 12.4841 48.5893 12.4626C48.7783 12.419 48.9673 12.3776 49.1573 12.3386C49.9793 12.1689 50.8051 12.0199 51.6355 11.8979C53.4595 11.6308 55.3065 11.4696 57.1508 11.4837C57.2574 11.4848 57.3642 11.4866 57.4704 11.4886C57.5231 11.4897 57.5761 11.4915 57.6289 11.4926C57.3268 11.4845 57.524 11.4901 57.5887 11.4924C57.8112 11.5004 58.0338 11.5126 58.2558 11.5287C58.659 11.5572 59.0614 11.6004 59.461 11.6605C59.8235 11.7155 60.1828 11.7883 60.5368 11.8824C60.5767 11.8928 60.6162 11.9041 60.6556 11.9154C60.8159 11.961 60.4209 11.844 60.5797 11.8931C60.6546 11.9165 60.7295 11.9414 60.8036 11.968C60.9559 12.021 61.1057 12.0821 61.2529 12.1494C61.3167 12.1792 61.3798 12.2107 61.4425 12.2432C61.5174 12.2831 61.7541 12.4261 61.4446 12.2374C61.5629 12.3099 61.676 12.391 61.7829 12.4802C61.83 12.5187 61.8747 12.5602 61.9184 12.6028C62.021 12.7016 61.7375 12.411 61.8342 12.5149C61.8541 12.5366 61.8727 12.5588 61.8922 12.5814C61.9292 12.6252 61.9638 12.6721 61.9971 12.7194C62.0138 12.7424 62.0289 12.7666 62.0441 12.7909C62.1476 12.9531 61.9294 12.5721 61.995 12.6973C62.0482 12.7979 62.0881 12.9051 62.1197 13.0148C62.1596 13.1514 62.06 12.7468 62.089 12.8868C62.0952 12.916 62.1 12.945 62.1047 12.974C62.1158 13.0435 62.1208 13.114 62.1241 13.1837C62.1346 13.432 62.1401 12.9653 62.1269 13.1669C62.123 13.2329 62.1142 13.2994 62.1044 13.3648C62.0939 13.4341 62.0789 13.503 62.063 13.5715C62.0545 13.607 62.0452 13.6422 62.0358 13.6774C62.1207 13.3643 62.0698 13.5631 62.0456 13.6341C61.9933 13.792 61.9268 13.9446 61.855 14.0949C61.8159 14.1774 61.7731 14.2577 61.7297 14.3383C61.7064 14.3803 61.683 14.4216 61.6589 14.4632C61.5367 14.6759 61.7375 14.3382 61.651 14.4762C61.3933 14.8876 61.0926 15.2711 60.7781 15.6392C60.5974 15.851 60.4094 16.0548 60.2183 16.2562C60.1142 16.3652 60.0087 16.4726 59.9021 16.579C59.8469 16.6347 59.7906 16.6895 59.7352 16.7446C59.6607 16.8171 59.659 16.8184 59.7312 16.749C59.6912 16.7866 59.6515 16.8249 59.6116 16.8626C59.0463 17.3984 58.4303 17.8658 57.7771 18.2908C57.6185 18.3943 57.4567 18.4934 57.2938 18.5914C57.2129 18.6399 57.1308 18.6873 57.0488 18.7348C57.0498 18.7337 56.7802 18.8858 56.9302 18.8028C56.6002 18.984 56.2629 19.1523 55.9222 19.3132C55.2428 19.6351 54.5442 19.9149 53.8384 20.1738C52.3959 20.7029 50.9156 21.1118 49.4486 21.5665C48.0034 22.0142 46.5631 22.4786 45.1769 23.0884C44.8429 23.2353 44.513 23.3928 44.1873 23.5574C43.835 23.735 43.3927 23.9244 43.129 24.1309C42.8457 24.3515 42.5397 24.5542 42.2456 24.7617C41.9199 24.9914 41.6279 25.3307 41.3488 25.6142C41.1899 25.7745 41.2121 26.0677 41.3375 26.2365C41.5174 26.4797 41.8107 26.4818 42.052 26.3435Z" fill="#390000"/>
<path d="M41.7512 26.0674C41.9778 27.3951 42.676 28.7372 43.7847 29.54C44.7626 30.2472 45.9422 30.4985 47.1328 30.418C48.3267 30.337 49.4893 29.9239 50.5598 29.4101C51.781 28.8238 52.9373 28.1013 54.0423 27.3204C55.9093 26.0022 57.616 24.4864 59.3386 22.9895C59.4041 22.9327 59.4706 22.8747 59.5368 22.8176C59.9695 22.4455 60.1145 21.8353 59.7552 21.3503C59.4345 20.9171 58.7205 20.7576 58.2876 21.1313C56.6025 22.5879 54.9457 24.0715 53.1553 25.4002C52.6325 25.7878 52.0999 26.1613 51.5539 26.5148C51.2849 26.6889 51.0122 26.8573 50.7365 27.0197C50.6057 27.0967 50.4748 27.1717 50.3421 27.2458C50.2697 27.2867 50.12 27.3689 50.4511 27.1865C50.4181 27.205 50.3855 27.2226 50.3522 27.2405C50.2765 27.2819 50.1996 27.3224 50.1225 27.3622C49.595 27.6376 49.0518 27.8832 48.4919 28.0837C48.2312 28.1772 47.9656 28.2618 47.6978 28.3351C47.6355 28.352 47.5736 28.368 47.5108 28.3837C47.912 28.2846 47.6464 28.3506 47.5517 28.3707C47.4192 28.3989 47.2856 28.4226 47.1515 28.4428C46.9129 28.4783 46.6724 28.4981 46.4314 28.5015C46.3724 28.5028 46.3139 28.5017 46.2554 28.5006C46.6437 28.5091 46.3932 28.5048 46.3019 28.4985C46.1774 28.4899 46.0541 28.4751 45.9311 28.4553C45.8189 28.4376 45.7079 28.4138 45.5978 28.3868C45.5705 28.3794 45.5433 28.372 45.5161 28.3646C45.3814 28.3277 45.7721 28.4428 45.6387 28.4018C45.5847 28.3847 45.5309 28.366 45.4778 28.3471C45.3703 28.3083 45.2655 28.2635 45.1629 28.2149C45.1111 28.1905 45.0599 28.1636 45.0093 28.1366C44.9841 28.1233 44.9585 28.1089 44.9337 28.0948C44.7684 28.0009 45.1297 28.2163 45.0117 28.1428C44.8043 28.0143 44.6222 27.8602 44.4372 27.7022C44.39 27.6616 44.3437 27.6179 44.2983 27.5745C44.2754 27.5525 44.253 27.5296 44.2301 27.5076C44.1273 27.4046 44.4011 27.6867 44.3004 27.5801C44.1997 27.4734 44.1053 27.3608 44.0148 27.2452C43.8255 27.0057 43.6565 26.7462 43.4982 26.4847C43.4577 26.4171 43.4183 26.3485 43.3798 26.2802C43.5255 26.5387 43.3768 26.2706 43.3453 26.2096C43.2361 25.9973 43.1133 25.7945 42.9983 25.5858C42.853 25.3207 42.4494 25.2522 42.1911 25.3519C41.9191 25.457 41.6996 25.7669 41.7512 26.0674Z" fill="#390000"/>
<path d="M58.4433 22.9328C58.4898 23.1571 58.5361 23.3809 58.597 23.6018C58.6113 23.6537 58.6266 23.7044 58.6415 23.756C58.646 23.7693 58.6498 23.7829 58.6542 23.7963C58.6553 23.8009 58.6563 23.8055 58.658 23.8098C58.6051 23.5894 58.6073 23.5986 58.6646 23.8381C58.6772 23.8706 58.6888 23.9026 58.7007 23.9353C58.7469 24.0623 58.7949 24.1886 58.8442 24.3144C59.1064 24.9802 59.3975 25.6357 59.7045 26.2821C60.6329 28.235 61.6523 30.1399 62.7033 32.0297C63.9661 34.3008 65.2726 36.5479 66.6158 38.773C67.9796 41.033 69.3824 43.2695 70.8614 45.4564C72.1055 47.2967 73.3877 49.1188 74.7914 50.8415C75.3608 51.54 75.9561 52.2164 76.5995 52.8483C77.0626 53.3032 77.5541 53.7107 78.1228 54.0288C78.3527 54.1579 78.6123 54.186 78.8738 54.1725C79.1824 54.1566 79.4524 54.0372 79.6741 53.8111C79.399 53.9174 79.1245 54.0234 78.8493 54.1296C78.8555 54.1308 78.8617 54.132 78.8679 54.1332C79.3355 54.2301 79.7979 53.8644 79.8721 53.4085C79.9512 52.9226 79.6138 52.5002 79.1473 52.4043C79.1411 52.4031 79.1356 52.4017 79.1294 52.4005C79.355 52.5836 79.5803 52.7662 79.8059 52.9493C79.7439 52.7589 79.6042 52.6387 79.466 52.5092C79.319 52.3717 79.6757 52.7401 79.545 52.5913C79.401 52.4261 79.2629 52.2894 79.0593 52.1874C79.0111 52.1629 78.9641 52.1359 78.9169 52.1083C79.3304 52.3529 78.9587 52.1294 78.8377 52.0406C78.7285 51.9602 78.6225 51.875 78.5191 51.7873C78.2724 51.5793 78.04 51.3543 77.8135 51.1242C77.7436 51.0529 77.5936 50.8965 77.8963 51.2105C77.866 51.1784 77.8351 51.1466 77.8048 51.1146C77.7368 51.0426 77.6695 50.9704 77.6025 50.8973C77.4662 50.7485 77.3296 50.5991 77.196 50.4478C75.8193 48.8917 74.5908 47.2031 73.3968 45.5054C71.909 43.3886 70.4855 41.2247 69.0895 39.0465C67.6644 36.823 66.2797 34.5738 64.9351 32.3006C64.3258 31.2705 63.7254 30.2355 63.1359 29.1934C62.9999 28.9527 62.8645 28.7118 62.7296 28.4699C62.6949 28.408 62.6245 28.2796 62.7785 28.5614C62.7302 28.4733 62.6834 28.3874 62.6336 28.3012C62.602 28.2453 62.5706 28.1901 62.5383 28.1344C62.4703 28.0158 62.403 27.897 62.3356 27.7782C62.2103 27.5578 62.0862 27.3368 61.9628 27.1156C61.9053 27.0131 61.8484 26.9103 61.7911 26.8084C61.7638 26.758 61.7356 26.7072 61.7076 26.6571C61.6685 26.5855 61.5377 26.347 61.7048 26.6517C61.4924 26.2649 61.2825 25.8756 61.0764 25.4849C61.0538 25.4413 61.0315 25.3983 61.0083 25.3549C60.9676 25.2774 60.931 25.2048 60.8847 25.1259C61.0354 25.3824 60.9721 25.2872 60.9403 25.227C60.8929 25.1378 60.8455 25.0485 60.7988 24.959C60.7135 24.7977 60.6304 24.6362 60.5476 24.4739C60.4068 24.1963 60.2694 23.9167 60.1386 23.6338C60.1118 23.5754 60.0858 23.5173 60.0598 23.4592C60.0477 23.4317 60.0356 23.4041 60.0235 23.3765C60.0176 23.363 60.0116 23.3495 60.0063 23.3358C59.9815 23.2715 59.9488 23.211 59.9083 23.1543C59.9864 23.3026 60.0104 23.3464 59.9806 23.284C59.9343 23.1865 59.8891 23.0878 59.8472 22.9886C59.8201 22.9259 59.7947 22.8619 59.7713 22.7978C59.7612 22.7716 59.7523 22.7449 59.7435 22.7182C59.6938 22.571 59.7817 22.9063 59.7599 22.8015C59.6868 22.449 59.4223 22.1705 59.0358 22.2093C58.7057 22.2421 58.3698 22.579 58.4433 22.9328Z" fill="#390000"/>
<path d="M59.3022 39.8179C59.8092 39.4078 60.2999 38.9781 60.7793 38.5356C61.0795 38.2584 61.3736 37.9749 61.6656 37.6893C61.7942 37.5637 61.9222 37.4368 62.0495 37.3095C62.1142 37.2451 62.1787 37.18 62.2432 37.115C62.2798 37.0779 62.4014 36.9585 62.2231 37.1299C62.3088 37.0473 62.3879 36.9681 62.4679 36.8819C63.5961 35.6634 64.6618 34.3923 65.6639 33.0682C67.8544 30.1762 69.8451 27.1104 71.5268 23.8943C72.2912 22.4334 72.9855 20.9321 73.5539 19.3834C74.0587 18.0062 74.483 16.5762 74.6735 15.1183C74.759 14.4615 74.7912 13.7931 74.7596 13.132C74.7287 12.4837 74.022 12.0834 73.4547 12.2982C73.1231 12.4234 72.8895 12.7265 72.8333 13.0729C72.8113 13.2091 72.8281 13.3546 72.8339 13.4921C72.8404 13.6409 72.8413 13.7897 72.8397 13.938C72.8397 13.9731 72.839 14.0085 72.8381 14.0433C72.8345 14.201 72.8472 13.7752 72.841 13.9339C72.8387 14.0058 72.8346 14.0769 72.8308 14.1486C72.821 14.3073 72.8077 14.4658 72.7914 14.6241C72.7589 14.9428 72.7115 15.2601 72.6562 15.5754C72.5969 15.9101 72.525 16.2419 72.4458 16.5715C72.4054 16.7362 72.3633 16.9001 72.3191 17.0641C72.2968 17.1473 72.2735 17.2301 72.2497 17.3132C72.2379 17.355 72.2261 17.3969 72.2143 17.4387C72.1479 17.668 72.2676 17.2611 72.2213 17.416C71.2608 20.6173 69.6873 23.6403 67.9733 26.4961C67.9451 26.5421 67.9172 26.5887 67.8897 26.6345C68.0275 26.4063 67.9261 26.5745 67.897 26.6216C67.841 26.7142 67.7841 26.8064 67.7275 26.8993C67.6041 27.0996 67.4796 27.299 67.3543 27.498C67.1134 27.8806 66.8678 28.2601 66.619 28.6386C66.1262 29.3881 65.6173 30.1274 65.0957 30.8579C64.105 32.2449 63.0656 33.6027 61.9906 34.9255C60.8666 36.3073 59.7264 37.6897 58.4544 38.9387C58.2604 39.129 58.2917 39.4884 58.4404 39.6897C58.6336 39.9506 59.0408 40.0286 59.3022 39.8179Z" fill="#390000"/>
<mask id="mask0_20_278" style="mask-type:luminance" maskUnits="userSpaceOnUse" x="72" y="12" width="9" height="6">
<path d="M72.3181 14.8323L79.3133 12.131L80.3618 14.8462L73.3666 17.5475L72.3181 14.8323Z" fill="white"/>
</mask>
<g mask="url(#mask0_20_278)">
<path d="M73.8214 17.3639C74.0287 17.253 74.245 17.1595 74.4571 17.0553C74.737 16.9186 74.9976 16.7412 75.2645 16.5822C75.7455 16.2961 76.2289 16.0162 76.709 15.7297C77.1889 15.4426 77.6731 15.161 78.1411 14.8562C78.375 14.7043 78.6065 14.5482 78.8348 14.3876C79.0786 14.2168 79.3933 14.02 79.5615 13.7722C79.7738 13.4586 79.8157 13.0732 79.5799 12.7542C79.3643 12.4632 78.9483 12.3292 78.608 12.4728C78.3325 12.5892 78.1041 12.7979 77.8722 12.9828C77.6542 13.1552 77.4318 13.322 77.2079 13.4866C76.76 13.8159 76.3109 14.1435 75.8579 14.4668C75.4047 14.7917 74.9562 15.119 74.5206 15.4672C74.2767 15.6617 74.0352 15.8568 73.8114 16.0737C73.6108 16.2673 73.4663 16.478 73.3105 16.6686C73.047 16.9905 73.4153 17.5824 73.8214 17.3639Z" fill="#390000"/>
</g>
<path d="M73.7873 15.876C73.5145 15.823 73.3371 15.761 73.108 15.6967C72.9423 15.6503 73.2109 15.733 73.0532 15.6813C72.9918 15.6613 72.9299 15.6329 72.8679 15.6116C72.7582 15.5744 72.6535 15.5281 72.5503 15.4762C72.5067 15.4543 72.4637 15.43 72.4209 15.4064C72.2732 15.3229 72.5483 15.4877 72.409 15.3981C72.3307 15.3474 72.2507 15.3001 72.1698 15.2539C72.3499 15.3564 72.1592 15.2451 72.1234 15.2209C71.9356 15.0948 71.7639 14.9453 71.6037 14.7849C71.7724 14.9543 71.5491 14.7178 71.5117 14.6728C71.437 14.5833 71.3629 14.4937 71.2921 14.4013C71.22 14.3073 71.1527 14.2092 71.0879 14.1102C71.0599 14.0672 71.0328 14.0232 71.0058 13.9791C70.9798 13.9361 70.8603 13.7213 70.9787 13.9387C70.8603 13.7213 70.7593 13.495 70.6683 13.2649C70.5761 13.0317 70.5286 12.7675 70.4093 12.5476C70.2401 12.2358 69.9896 12.0272 69.6127 12.0573C69.6962 12.0695 69.7792 12.0819 69.8627 12.0941C69.6041 12.0054 69.3785 12.0581 69.1908 12.2589C69.2642 12.2076 69.3378 12.157 69.4112 12.1057C69.0889 12.2753 68.9024 12.5259 68.9211 12.9029C68.9358 13.2156 69.0786 13.5447 69.194 13.8342C69.3125 14.1298 69.4586 14.4117 69.6139 14.6894C69.8874 15.1767 70.2291 15.6104 70.6546 15.9752C71.0951 16.3529 71.6079 16.6208 72.1742 16.7449C72.7528 16.8713 73.3121 16.8195 73.8643 16.612C74.2305 16.4742 74.1542 15.948 73.7873 15.876Z" fill="#390000"/>
<path d="M38.0482 44.6205C37.6124 44.4167 37.171 44.2316 36.7209 44.0612C36.2159 43.8712 35.6838 43.739 35.1613 43.6039C34.1813 43.3514 33.1757 43.1906 32.1732 43.0507C30.0346 42.7539 27.8476 42.6936 25.6912 42.6997C21.6935 42.7107 17.7072 43.0427 13.7204 43.3161C13.1331 43.3565 12.6947 43.9273 12.7521 44.4995C12.8122 45.095 13.3488 45.5137 13.9355 45.4678C18.0445 45.1471 22.1547 44.7795 26.2792 44.7532C26.7662 44.7501 27.2537 44.7576 27.7412 44.7593C27.9941 44.7606 28.2471 44.764 28.5005 44.7687C28.6262 44.7711 28.7527 44.7738 28.8786 44.7768C28.9418 44.7789 29.0047 44.7804 29.0677 44.7819C29.2939 44.7885 28.8325 44.7745 29.059 44.7817C30.0582 44.8146 31.0538 44.8882 32.0503 44.968C33.02 45.0452 33.9833 45.1707 34.9475 45.3003C35.4165 45.3637 35.8821 45.4498 36.3512 45.5081C36.8102 45.566 37.2693 45.6318 37.7256 45.7051C38.3737 45.809 38.6326 44.8938 38.0482 44.6205Z" fill="#390000"/>
<path d="M14.0128 43.9744C13.7577 43.8636 13.5621 43.7635 13.3431 43.6122C13.2306 43.5344 13.1219 43.4517 13.0149 43.3675C12.9531 43.319 12.8933 43.2682 12.8336 43.2174C12.8036 43.1917 12.7736 43.166 12.7442 43.1401C12.8226 43.2224 12.795 43.1936 12.6617 43.0544C12.4349 42.8609 12.2178 42.6551 12.0018 42.4503C11.9577 42.4086 11.9149 42.3663 11.872 42.3241C11.8438 42.2955 11.815 42.2672 11.7874 42.2385C11.8524 42.3066 11.8559 42.3102 11.7972 42.249C11.686 42.1321 11.5779 42.0118 11.4721 41.8899C11.0631 41.4212 10.6928 40.919 10.3361 40.4093C10.1537 40.1486 9.979 39.8819 9.79508 39.621C9.5717 39.3043 9.32656 38.8348 8.93789 38.7138C8.71961 38.6461 8.53047 38.6131 8.30836 38.6988C8.06317 38.7935 7.80504 39.0552 7.7925 39.3347C7.77742 39.6911 7.85795 39.9052 8.04619 40.1996C8.13762 40.3435 8.24018 40.481 8.34024 40.6194C8.53989 40.8951 8.75133 41.1604 8.96589 41.4245C9.40286 41.962 9.86668 42.4762 10.3612 42.962C10.8363 43.4295 11.3433 43.8288 11.9195 44.1662C12.4707 44.4889 13.1402 44.6835 13.7551 44.8425C14.2668 44.974 14.4775 44.1771 14.0128 43.9744Z" fill="#390000"/>
<path d="M13.5459 44.4853C13.0889 44.3284 12.6434 44.157 12.1681 44.0531C11.6787 43.946 11.1954 43.8845 10.695 43.8605C9.63851 43.8111 8.51285 43.8945 7.52491 44.3011C7.12274 44.4664 6.90838 44.9213 7.06764 45.3337C7.23147 45.758 7.68642 45.9242 8.10049 45.7916C8.29886 45.7279 8.49661 45.6644 8.69773 45.6097C8.74184 45.5977 8.78681 45.5861 8.83203 45.5751C8.64118 45.6229 8.86799 45.5698 8.89526 45.5643C9.00931 45.5403 9.12443 45.5209 9.24004 45.5028C9.70407 45.429 10.1785 45.4007 10.6487 45.3854C11.1173 45.3701 11.5893 45.3799 12.0576 45.3841C12.508 45.388 12.9568 45.3602 13.4052 45.3648C13.8632 45.37 13.9701 44.6312 13.5459 44.4853Z" fill="#390000"/>
<mask id="mask1_20_278" style="mask-type:luminance" maskUnits="userSpaceOnUse" x="6" y="44" width="9" height="8">
<path d="M6.90479 46.7L13.0465 44.3282L14.9585 49.2795L8.8168 51.6513L6.90479 46.7Z" fill="white"/>
</mask>
<g mask="url(#mask1_20_278)">
<path d="M12.8502 44.6851C12.1413 44.6319 11.5653 44.9225 11.0226 45.3571C10.4488 45.8168 9.96251 46.3881 9.54812 46.9933C9.14547 47.5826 8.77684 48.2246 8.5637 48.9092C8.46321 49.2319 8.37448 49.5572 8.35501 49.8967C8.326 50.3897 8.41914 51.1675 9.0698 51.213C8.96429 51.1663 8.85878 51.1196 8.75351 51.0735C8.66488 50.9758 8.64242 50.9529 8.68753 51.0029C8.73019 51.0502 8.77423 51.0956 8.81953 51.1405C8.91007 51.2338 9.02073 51.2549 9.13904 51.2902C9.40291 51.3683 9.67407 51.1589 9.7845 50.9399C9.84226 50.8258 9.84262 50.7339 9.84336 50.6096C9.84359 50.6009 9.84319 50.5924 9.84318 50.5831C9.85251 50.6648 9.83816 50.7428 9.80138 50.8165C9.72938 50.9067 9.65676 50.9971 9.58438 51.0881C9.73837 50.9857 9.8741 50.7913 9.89089 50.6027C9.89785 50.5298 9.90034 50.4564 9.89924 50.383C9.89488 50.6427 9.89409 50.5219 9.89853 50.4628C9.90702 50.3549 9.91615 50.2467 9.90875 50.1384C9.90376 50.0679 9.91504 49.8205 9.90185 50.1131C9.91365 49.854 9.97063 49.5969 10.0416 49.3479C9.96858 49.6027 10.0408 49.359 10.06 49.3028C10.0829 49.2359 10.1058 49.169 10.1302 49.1022C10.1859 48.9495 10.2495 48.8002 10.3158 48.6527C10.3787 48.513 10.4477 48.3759 10.5188 48.2409C10.5552 48.1717 10.5927 48.1034 10.631 48.0356C10.6538 47.9945 10.6778 47.9544 10.7015 47.9137C10.786 47.7686 10.6127 48.057 10.7013 47.9131C11.0402 47.3614 11.4453 46.8508 11.9003 46.3897C12.0377 46.2499 11.8152 46.4663 11.9585 46.3343C12.0092 46.2874 12.0619 46.242 12.1149 46.1972C12.2251 46.1037 12.3432 46.0215 12.4528 45.9268C12.5436 45.8481 12.6432 45.7831 12.7369 45.7082C12.7804 45.6742 12.8233 45.6404 12.8682 45.608C12.8985 45.5863 13.071 45.4817 12.9411 45.5519C13.1205 45.4539 13.2497 45.3058 13.228 45.0862C13.2084 44.8981 13.0494 44.6999 12.8502 44.6851Z" fill="#390000"/>
</g>
<path d="M46.06 19.4583C46.1911 19.5325 46.0396 19.4426 46.021 19.4297C45.9739 19.397 45.93 19.3594 45.8858 19.3227C45.8388 19.2828 45.7948 19.2396 45.7509 19.1963C45.8492 19.2931 45.7163 19.1308 45.7102 19.1224C45.6706 19.0682 45.6357 19.0113 45.6007 18.9539C45.6199 18.9852 45.6677 19.1833 45.6356 19.0258C45.5963 18.833 45.5421 18.6668 45.4769 18.4848C45.0895 18.8538 44.7028 19.2225 44.3158 19.5906C44.0673 19.4557 44.2125 19.5272 44.276 19.5859C44.0636 19.3905 44.2086 19.5209 44.2568 19.5862C44.2943 19.6369 44.3267 19.6911 44.3591 19.7452C44.407 19.8285 44.3922 19.8013 44.3144 19.6629C44.3369 19.7065 44.3585 19.7512 44.3792 19.7955C44.4853 20.0184 44.5573 20.2473 44.6202 20.4847C44.756 20.9922 45.4155 21.2092 45.8654 21.0355C46.3944 20.8312 46.5517 20.2973 46.4165 19.791C46.3505 19.5441 46.2498 19.3055 46.1823 19.0584C46.1157 18.8153 46.2355 19.3095 46.1843 19.0691C46.168 18.9936 46.156 18.918 46.1474 18.8417C46.145 18.819 46.1433 18.796 46.1425 18.7734C46.1321 18.6203 46.1266 19.0534 46.1358 18.91C46.141 18.8234 46.2005 18.7101 46.0834 19.0586C46.0859 19.0519 46.0892 19.0456 46.0918 19.0395C45.9877 19.2619 45.8258 19.4162 45.6064 19.5016C45.1774 19.3116 44.7485 19.1217 44.3195 18.9317C44.3671 19.0718 44.2713 18.6249 44.298 18.8648C44.325 19.1038 44.3205 18.6668 44.3002 18.8223C44.2803 18.9211 44.2946 18.8783 44.3431 18.6939C44.2689 18.8509 44.3502 18.755 44.5856 18.4067C44.8365 18.2338 45.1028 18.2012 45.3844 18.3104C45.4263 18.3373 45.4682 18.3641 45.5108 18.3907C45.473 18.3652 45.4373 18.3359 45.4039 18.3051C44.6512 17.6537 43.463 18.5405 43.8451 19.4483C44.0312 19.8912 44.4054 20.2328 44.7346 20.5674C44.9154 20.7514 45.101 20.9313 45.2911 21.106C45.696 21.4787 46.3869 21.3539 46.7113 20.9462C47.0758 20.4885 46.9515 19.9049 46.5514 19.526C46.3615 19.3462 46.6932 19.687 46.5233 19.4995C46.4594 19.4289 46.4011 19.3539 46.3423 19.2798C46.2486 19.1597 46.1605 19.0353 46.0684 18.9138C45.8292 18.599 45.5494 18.3328 45.1877 18.1649C45.1732 18.7863 45.158 19.408 45.1429 20.0297C44.7296 20.1478 44.3952 20.0503 44.1394 19.739C44.1942 19.8197 44.1678 19.7697 44.0609 19.5894C44.1241 19.7141 44.1857 19.8495 44.273 19.9606C44.4877 20.1824 44.508 20.2032 44.3338 20.0232C44.3993 20.0925 44.4651 20.161 44.5316 20.2292C44.6768 20.3675 44.8496 20.4176 45.0379 20.4653C44.9065 20.4071 44.775 20.3489 44.6444 20.2911C44.8421 20.4836 45.1248 20.5938 45.4 20.5621C45.8168 20.5144 46.1259 20.1434 46.087 19.7232C46.0699 19.5434 46.0168 19.4485 45.9308 19.2946C46.0548 19.5155 45.9864 19.3828 45.9645 19.3224C45.9803 19.4691 45.9954 19.6159 46.0108 19.7634C46.0898 19.4927 46.0329 19.0465 45.9025 18.8036C45.7628 18.5421 45.5911 18.2758 45.2955 18.1655C44.9801 18.0486 44.7365 18.0566 44.4155 18.1462C44.0821 18.2391 43.8357 18.6016 43.7828 18.9268C43.7068 19.3928 43.9635 19.8034 44.3707 20.0111C44.5401 20.0969 44.1635 19.8645 44.3165 19.9839C44.3752 20.0301 44.4911 20.1725 44.2848 19.9446C44.3797 20.0492 44.4645 20.1612 44.5496 20.2739C44.7757 20.5716 45.0164 20.8515 45.2911 21.106C45.7112 20.5788 46.131 20.0525 46.5514 19.526C46.3807 19.3718 46.2143 19.2138 46.0506 19.0533C45.9889 18.994 45.9287 18.9326 45.8687 18.8719C46.1392 19.1474 45.8864 18.888 45.8245 18.8187C45.7772 18.7667 45.7327 18.7129 45.689 18.6574C45.6711 18.6349 45.6547 18.6111 45.6383 18.5873C45.5323 18.4354 45.7626 18.8405 45.7137 18.7267C45.1942 19.108 44.674 19.4896 44.1545 19.8708C44.7008 20.3331 45.5333 20.4059 46.0046 19.7845C46.3414 19.3404 46.3563 18.7238 46.1769 18.2145C46.0081 17.7348 45.3675 17.4108 44.8891 17.6442C44.5031 17.8327 44.218 18.1508 44.1719 18.5923C44.1369 18.9284 44.2034 19.1974 44.2818 19.5227C44.3596 19.8432 44.4684 20.1898 44.6209 20.4844C45.2192 20.2534 45.8181 20.0221 46.4165 19.791C46.3308 19.6248 46.2403 19.4611 46.1499 19.2975C46.3206 19.6058 46.179 19.3414 46.1421 19.2718C46.0734 19.142 46.0024 19.0139 45.9282 18.8869C45.7151 18.5226 45.412 18.1758 45.0186 18.0036C44.3581 17.7153 43.5329 18.4024 43.8578 19.11C43.971 19.3567 44.095 19.5719 44.3074 19.7487C44.4418 19.861 44.5754 19.975 44.7125 20.0848C44.9659 20.2881 45.2526 20.4792 45.5582 20.5928C45.8745 20.7101 46.2333 20.5995 46.3761 20.2769C46.5225 19.9451 46.3542 19.6243 46.06 19.4583Z" fill="#390000"/>
<path d="M54.2871 17.0847C54.2596 17.0208 54.2363 16.9566 54.2056 16.8939C54.1852 16.8523 54.1667 16.81 54.1507 16.7667C54.1606 16.8367 54.1593 16.8315 54.1468 16.751C54.1362 16.6863 54.1295 16.6208 54.1174 16.5559C54.0636 16.3293 54.053 16.2854 54.0863 16.4252C54.0757 16.3813 54.0661 16.3377 54.0555 16.2937C54.0065 16.0868 53.9627 15.8807 53.8793 15.685C53.7534 15.3888 53.5838 15.1797 53.36 14.9549C53.0803 14.6743 52.5613 14.7171 52.2662 14.935C51.9406 15.1761 51.8262 15.6039 51.9634 15.9796C52.141 16.4674 52.3269 16.9526 52.4831 17.448C52.6371 17.9377 53.2445 18.1627 53.6999 17.9868C54.2022 17.7929 54.3931 17.2588 54.2394 16.7698C54.0837 16.2757 53.8833 15.7938 53.701 15.3086C53.27 15.7188 52.8397 16.1287 52.4096 16.5393C52.5763 16.6219 52.2152 16.4015 52.3645 16.5151C52.4233 16.5598 52.533 16.6953 52.3313 16.472C52.4003 16.5486 52.56 16.8376 52.3898 16.5082C52.4317 16.5889 52.4629 16.6901 52.4909 16.7775C52.6252 17.1995 53.1026 17.4575 53.527 17.4148C54.0834 17.3591 54.4653 16.861 54.4269 16.3159C54.3801 15.6544 54.1257 15.1016 53.6409 14.6536C53.4711 14.4962 53.2534 14.3781 53.042 14.2855C52.9143 14.2294 52.7636 14.1865 52.6217 14.1718C52.4415 14.1525 52.234 14.1537 52.064 14.2294C51.975 14.2681 51.8894 14.314 51.8083 14.3676C52.0049 14.2659 52.0582 14.2331 51.9685 14.2699C51.5972 14.4169 51.3292 14.8071 51.3796 15.2142C51.4004 15.3869 51.4518 15.5441 51.5583 15.6844C51.5631 15.6911 51.5684 15.6977 51.5732 15.7044C51.4331 15.4381 51.4428 15.4522 51.6027 15.7475C51.7654 16.0109 52.0632 16.121 52.3242 16.2568C52.4696 16.3326 52.0815 16.1018 52.2197 16.194C52.2507 16.215 52.28 16.2388 52.309 16.262C52.3737 16.3144 52.4826 16.4387 52.234 16.1755C52.2717 16.2155 52.3047 16.2601 52.3364 16.3052C52.3841 16.3728 52.4632 16.5351 52.2922 16.2147C52.3373 16.2962 52.3818 16.378 52.4271 16.4601C52.3331 16.2835 52.3103 16.245 52.3584 16.3454C52.3812 16.3933 52.399 16.443 52.4165 16.4922C52.4284 16.5285 52.4394 16.5644 52.4498 16.6005C52.412 16.4323 52.4048 16.4042 52.4278 16.5158C53.0732 16.3619 53.7185 16.2081 54.3638 16.0542C54.1158 15.527 53.7259 15.028 53.1911 14.7735C52.4268 14.4098 51.5946 15.2345 51.8997 16.0042C52.0908 16.486 52.2657 16.9777 52.4831 17.448C52.698 17.9135 53.1983 18.1805 53.6999 17.9868C54.156 17.8107 54.4545 17.2359 54.2394 16.7698C54.0215 16.2983 53.8336 15.8137 53.6373 15.3332C53.1721 15.6749 52.7059 16.0162 52.2407 16.3579C52.0149 16.1483 52.5007 16.6396 52.286 16.4028C52.3485 16.4719 52.3996 16.5503 52.4492 16.6287C52.5335 16.7617 52.6109 16.8989 52.6882 17.0361C52.7224 17.0967 52.7583 17.1488 52.8031 17.2018C52.8605 17.2649 52.9189 17.327 52.9793 17.3868C53.0331 17.4428 53.0387 17.4478 52.9952 17.4022C53.1606 17.5742 53.3104 17.7114 53.5368 17.8003C53.9701 17.9699 54.491 17.5551 54.2871 17.0847Z" fill="#390000"/>
</svg>
